<svg xmlns="http://www.w3.org/2000/svg" viewBox="0 0 512 512"><circle cx="256" cy="256" r="256" fill="#fff"/><circle cx="256" cy="256" r="235.5" fill="#024062"/><path fill="#6fefdf" d="M203 376c-25 12-71 30-132 10-16-6-12-27 1-25 48 15 75 13 120-5zm90-55c73-9 118 24 146 41 18 10 1 27-6 22-33-22-69-36-109-40-14-1-28 2-42 3"/><path fill="#fff" d="M295 321c1 3-5 24-11 25-12 3-26 9-40 14-19 6-41 16-41 16-6 0-11-15-12-19 32-15 68-34 104-36z"/><path fill="#6fefdf" d="M145 337c-20 2-43 3-74-10-16-4-12-26 1-24 9 1 31 15 69 11z"/><path fill="#fff" d="M254 271c86-31 165 13 187 30 16 12 1 27-6 22-76-46-119-45-179-27-23 7-103 46-115 41-19-10-1-23-1-23"/><path fill="#10acb5" d="M152 260h59l-45 17c-4 1-28 8-36-2zm215-23 65-13-8 17h13s-11 17-18 15c-36-15-52-19-52-19z"/><path fill="#3ad3cd" d="m454 210-18 3 2-22c-39 16-252 27-252 27l-28 18-4 13h85s31-11 48-14a244 244 0 0 1 80 2l65-13-8 17h13c4-4 12-17 17-31z"/><path fill="#96f6ea" d="m233 184-17 14c15 0 80 1 112-3 53-6 81-17 104-43l3 13c-56 45-135 46-233 41l-16 12c30 4 60 3 90 3 54 0 120-13 162-30l-2 22 18-3c7-32-6-86-24-82-7 2-11 18-21 26-51 33-117 30-176 30z"/><path fill="#3ad3cd" d="m72 243 43-30 22-1-67-21s-1 13 3 22l-19-6c2 9 11 28 18 36z"/><path fill="#96f6ea" d="M179 182c-113-25-81-50-102-54-17-1-27 42-23 79l19 6c-4-11-3-22-3-22l67 21 15-11c-29-7-56-18-78-37l3-11s16 16 26 21c12 7 31 13 59 20z"/><path fill="#fff" d="m314 81-3 1-47 34-7 23-58 42-57 41h-24l-47 34c-2 1-3 4-3 6 6 16 7 17 20 27h6l48-34 7-23 58-41 57-42h24l47-34c2-1 3-4 2-6-5-16-6-17-19-27l-4-1z"/></svg>